<?xml version="1.0" encoding="UTF-8" standalone="no"?>
<!DOCTYPE svg PUBLIC "-//W3C//DTD SVG 1.1//EN"
 "http://www.w3.org/Graphics/SVG/1.1/DTD/svg11.dtd">
<!-- Generated by graphviz version 2.44.1 (20200629.0846)
 -->
<!-- Title: g Pages: 1 -->
<svg width="1229pt" height="853pt"
 viewBox="0.00 0.00 1228.50 853.20" xmlns="http://www.w3.org/2000/svg" xmlns:xlink="http://www.w3.org/1999/xlink">
<g id="graph0" class="graph" transform="scale(1 1) rotate(0) translate(4 849.2)">
<title>g</title>
<polygon fill="white" stroke="transparent" points="-4,4 -4,-849.2 1224.5,-849.2 1224.5,4 -4,4"/>
<!-- Money1917344214 -->
<g id="node1" class="node">
<title>Money1917344214</title>
<polygon fill="#ffffff" stroke="transparent" points="540.5,-74 433.5,-74 433.5,0 540.5,0 540.5,-74"/>
<text text-anchor="start" x="439" y="-56.4" font-family="Times New Roman,serif" font-size="14.00">(C)Money</text>
<text text-anchor="start" x="439" y="-32.4" font-family="Times New Roman,serif" font-size="14.00">&#45; &#160;&#160;unit: String </text>
<text text-anchor="start" x="438.71" y="-8.4" font-family="Times New Roman,serif" font-size="14.00">&#45; &#160;&#160;value: Double </text>
<polygon fill="black" stroke="black" points="434,-49 434,-49 541,-49 541,-49 434,-49"/>
<polygon fill="none" stroke="black" points="433.5,0 433.5,-74 540.5,-74 540.5,0 433.5,0"/>
</g>
<!-- Operator1917344214 -->
<g id="node2" class="node">
<title>Operator1917344214</title>
<polygon fill="#ffffff" stroke="transparent" points="683,-248.8 583,-248.8 583,-174.8 683,-174.8 683,-248.8"/>
<text text-anchor="start" x="588" y="-231.2" font-family="Times New Roman,serif" font-size="14.00">(C)Operator</text>
<text text-anchor="start" x="588" y="-207.2" font-family="Times New Roman,serif" font-size="14.00">&#45; &#160;&#160;id: Long </text>
<text text-anchor="start" x="587.7" y="-183.2" font-family="Times New Roman,serif" font-size="14.00">&#45; &#160;&#160;name: String </text>
<polygon fill="black" stroke="black" points="583,-223.8 583,-223.8 683,-223.8 683,-223.8 583,-223.8"/>
<polygon fill="none" stroke="black" points="583,-174.8 583,-248.8 683,-248.8 683,-174.8 583,-174.8"/>
</g>
<!-- Order1917344214 -->
<g id="node3" class="node">
<title>Order1917344214</title>
<polygon fill="#ffffff" stroke="transparent" points="701.5,-646.4 518.5,-646.4 518.5,-476.4 701.5,-476.4 701.5,-646.4"/>
<text text-anchor="start" x="524" y="-628.8" font-family="Times New Roman,serif" font-size="14.00">(C)Order</text>
<text text-anchor="start" x="524" y="-604.8" font-family="Times New Roman,serif" font-size="14.00">&#45; &#160;&#160;fullName: String </text>
<text text-anchor="start" x="524" y="-580.8" font-family="Times New Roman,serif" font-size="14.00">&#45; &#160;&#160;operator: Operator </text>
<text text-anchor="start" x="524" y="-556.8" font-family="Times New Roman,serif" font-size="14.00">&#45; &#160;&#160;phoneNumber: String </text>
<text text-anchor="start" x="524" y="-532.8" font-family="Times New Roman,serif" font-size="14.00">&#45; &#160;&#160;price: Money </text>
<text text-anchor="start" x="524" y="-508.8" font-family="Times New Roman,serif" font-size="14.00">&#45; &#160;&#160;term: Term </text>
<text text-anchor="start" x="523.88" y="-484.8" font-family="Times New Roman,serif" font-size="14.00">&#45; &#160;&#160;typeItems: List&lt;TypeItem&gt; </text>
<polygon fill="black" stroke="black" points="519,-621.4 519,-621.4 702,-621.4 702,-621.4 519,-621.4"/>
<polygon fill="none" stroke="black" points="518.5,-476.4 518.5,-646.4 701.5,-646.4 701.5,-476.4 518.5,-476.4"/>
</g>
<!-- Order1917344214&#45;&gt;Money1917344214 -->
<g id="edge1" class="edge">
<title>Order1917344214&#45;&gt;Money1917344214</title>
<path fill="none" stroke="black" d="M663.61,-476.1C681.52,-447.95 697,-423.6 697,-423.6 697,-423.6 697,-349.6 697,-349.6 697,-349.6 692,-126.8 692,-126.8 692,-126.8 610.31,-91.41 550.06,-65.32"/>
<polygon fill="black" stroke="black" points="551.16,-61.98 540.59,-61.22 548.38,-68.4 551.16,-61.98"/>
<text text-anchor="middle" x="731.58" y="-319" font-family="Times New Roman,serif" font-size="14.00">Містить</text>
</g>
<!-- Order1917344214&#45;&gt;Operator1917344214 -->
<g id="edge2" class="edge">
<title>Order1917344214&#45;&gt;Operator1917344214</title>
<path fill="none" stroke="black" d="M615.57,-476.26C620.08,-408.11 626.26,-314.65 629.92,-259.31"/>
<polygon fill="black" stroke="black" points="633.43,-259.31 630.6,-249.1 626.45,-258.85 633.43,-259.31"/>
<text text-anchor="middle" x="658.58" y="-382.4" font-family="Times New Roman,serif" font-size="14.00">Містить</text>
</g>
<!-- PickUpStation1917344214 -->
<g id="node6" class="node">
<title>PickUpStation1917344214</title>
<polygon fill="#ffffff" stroke="transparent" points="322.5,-423.6 91.5,-423.6 91.5,-349.6 322.5,-349.6 322.5,-423.6"/>
<text text-anchor="start" x="97" y="-406" font-family="Times New Roman,serif" font-size="14.00">(C)PickUpStation</text>
<text text-anchor="start" x="97" y="-382" font-family="Times New Roman,serif" font-size="14.00">&#45; &#160;&#160;address: String </text>
<text text-anchor="start" x="96.89" y="-358" font-family="Times New Roman,serif" font-size="14.00">&#45; &#160;&#160;connectionToDataBase: Connection </text>
<polygon fill="black" stroke="black" points="92,-398.6 92,-398.6 323,-398.6 323,-398.6 92,-398.6"/>
<polygon fill="none" stroke="black" points="91.5,-349.6 91.5,-423.6 322.5,-423.6 322.5,-349.6 91.5,-349.6"/>
</g>
<!-- Order1917344214&#45;&gt;PickUpStation1917344214 -->
<g id="edge3" class="edge">
<title>Order1917344214&#45;&gt;PickUpStation1917344214</title>
<path fill="none" stroke="black" d="M518.3,-521.08C453.21,-493.17 366.13,-455.83 300.61,-427.74"/>
<polygon fill="black" stroke="black" points="301.68,-424.39 291.11,-423.66 298.92,-430.82 301.68,-424.39"/>
<text text-anchor="middle" x="387.61" y="-445.8" font-family="Times New Roman,serif" font-size="14.00">фіксує</text>
</g>
<!-- Term1917344214 -->
<g id="node8" class="node">
<title>Term1917344214</title>
<polygon fill="#ffffff" stroke="transparent" points="106,-62 0,-62 0,-12 106,-12 106,-62"/>
<text text-anchor="start" x="5" y="-44.4" font-family="Times New Roman,serif" font-size="14.00">(C)Term</text>
<text text-anchor="start" x="4.99" y="-20.4" font-family="Times New Roman,serif" font-size="14.00">&#45; &#160;&#160;value: Integer </text>
<polygon fill="black" stroke="black" points="0,-37 0,-37 106,-37 106,-37 0,-37"/>
<polygon fill="none" stroke="black" points="0,-12 0,-62 106,-62 106,-12 0,-12"/>
</g>
<!-- Order1917344214&#45;&gt;Term1917344214 -->
<g id="edge4" class="edge">
<title>Order1917344214&#45;&gt;Term1917344214</title>
<path fill="none" stroke="black" d="M518.37,-480.23C515.6,-477.8 514,-476.4 514,-476.4 514,-476.4 334,-458.4 334,-458.4 334,-458.4 82,-423.6 82,-423.6 82,-423.6 7.34,-331.6 7.34,-331.6 7.34,-331.6 7.34,-314.8 7.34,-314.8 7.34,-314.8 35.12,-146.4 47.34,-72.3"/>
<polygon fill="black" stroke="black" points="50.85,-72.52 49.03,-62.08 43.95,-71.38 50.85,-72.52"/>
<text text-anchor="middle" x="48.83" y="-319" font-family="Times New Roman,serif" font-size="14.00">містить</text>
</g>
<!-- TicketList1917344214 -->
<g id="node9" class="node">
<title>TicketList1917344214</title>
<polygon fill="#ffffff" stroke="transparent" points="971.5,-411.6 740.5,-411.6 740.5,-361.6 971.5,-361.6 971.5,-411.6"/>
<text text-anchor="start" x="746" y="-394" font-family="Times New Roman,serif" font-size="14.00">(C)TicketList</text>
<text text-anchor="start" x="745.89" y="-370" font-family="Times New Roman,serif" font-size="14.00">&#45; &#160;&#160;connectionToDataBase: Connection </text>
<polygon fill="black" stroke="black" points="741,-386.6 741,-386.6 972,-386.6 972,-386.6 741,-386.6"/>
<polygon fill="none" stroke="black" points="740.5,-361.6 740.5,-411.6 971.5,-411.6 971.5,-361.6 740.5,-361.6"/>
</g>
<!-- Order1917344214&#45;&gt;TicketList1917344214 -->
<g id="edge5" class="edge">
<title>Order1917344214&#45;&gt;TicketList1917344214</title>
<path fill="none" stroke="black" d="M701.51,-480.17C725.85,-458.83 745.5,-441.6 745.5,-441.6 745.5,-441.6 771.04,-429.12 797.57,-416.15"/>
<polygon fill="black" stroke="black" points="799.12,-419.29 806.57,-411.76 796.05,-413 799.12,-419.29"/>
<text text-anchor="middle" x="781.75" y="-445.8" font-family="Times New Roman,serif" font-size="14.00">створює</text>
</g>
<!-- TypeItem1917344214 -->
<g id="node11" class="node">
<title>TypeItem1917344214</title>
<polygon fill="#ffffff" stroke="transparent" points="559,-423.6 471,-423.6 471,-349.6 559,-349.6 559,-423.6"/>
<text text-anchor="start" x="476" y="-406" font-family="Times New Roman,serif" font-size="14.00">(C)TypeItem</text>
<text text-anchor="start" x="476" y="-382" font-family="Times New Roman,serif" font-size="14.00">&#45; &#160;&#160;count: int </text>
<text text-anchor="start" x="475.54" y="-358" font-family="Times New Roman,serif" font-size="14.00">&#45; &#160;&#160;type: Type </text>
<polygon fill="black" stroke="black" points="471,-398.6 471,-398.6 559,-398.6 559,-398.6 471,-398.6"/>
<polygon fill="none" stroke="black" points="471,-349.6 471,-423.6 559,-423.6 559,-349.6 471,-349.6"/>
</g>
<!-- Order1917344214&#45;&gt;TypeItem1917344214 -->
<g id="edge6" class="edge">
<title>Order1917344214&#45;&gt;TypeItem1917344214</title>
<path fill="none" stroke="black" d="M532.65,-476.17C522.95,-465.6 516.34,-458.4 516.34,-458.4 516.34,-458.4 516.13,-447.29 515.88,-433.88"/>
<polygon fill="black" stroke="black" points="519.37,-433.76 515.69,-423.83 512.38,-433.89 519.37,-433.76"/>
<text text-anchor="middle" x="556.83" y="-445.8" font-family="Times New Roman,serif" font-size="14.00">містить</text>
</g>
<!-- TypeList1917344214 -->
<g id="node12" class="node">
<title>TypeList1917344214</title>
<polygon fill="#ffffff" stroke="transparent" points="1220.5,-411.6 989.5,-411.6 989.5,-361.6 1220.5,-361.6 1220.5,-411.6"/>
<text text-anchor="start" x="995" y="-394" font-family="Times New Roman,serif" font-size="14.00">(C)TypeList</text>
<text text-anchor="start" x="994.89" y="-370" font-family="Times New Roman,serif" font-size="14.00">&#45; &#160;&#160;connectionToDataBase: Connection </text>
<polygon fill="black" stroke="black" points="990,-386.6 990,-386.6 1221,-386.6 1221,-386.6 990,-386.6"/>
<polygon fill="none" stroke="black" points="989.5,-361.6 989.5,-411.6 1220.5,-411.6 1220.5,-361.6 989.5,-361.6"/>
</g>
<!-- Order1917344214&#45;&gt;TypeList1917344214 -->
<g id="edge7" class="edge">
<title>Order1917344214&#45;&gt;TypeList1917344214</title>
<path fill="none" stroke="black" d="M701.68,-484.15C707.45,-479.35 711,-476.4 711,-476.4 711,-476.4 819,-458.4 819,-458.4 819,-458.4 981,-423.6 981,-423.6 981,-423.6 994.45,-419.7 1012.49,-414.46"/>
<polygon fill="black" stroke="black" points="1013.66,-417.76 1022.29,-411.61 1011.71,-411.04 1013.66,-417.76"/>
<text text-anchor="middle" x="960.33" y="-445.8" font-family="Times New Roman,serif" font-size="14.00">вимогає</text>
</g>
<!-- OrderIDAndOddMany1917344214 -->
<g id="node4" class="node">
<title>OrderIDAndOddMany1917344214</title>
<polygon fill="#ffffff" stroke="transparent" points="565,-248.8 409,-248.8 409,-174.8 565,-174.8 565,-248.8"/>
<text text-anchor="start" x="413.53" y="-231.2" font-family="Times New Roman,serif" font-size="14.00">(C)OrderIDAndOddMany</text>
<text text-anchor="start" x="414" y="-207.2" font-family="Times New Roman,serif" font-size="14.00">&#45; &#160;&#160;oddMoney: Money </text>
<text text-anchor="start" x="414" y="-183.2" font-family="Times New Roman,serif" font-size="14.00">&#45; &#160;&#160;orderID: long </text>
<polygon fill="black" stroke="black" points="409,-223.8 409,-223.8 565,-223.8 565,-223.8 409,-223.8"/>
<polygon fill="none" stroke="black" points="409,-174.8 409,-248.8 565,-248.8 565,-174.8 409,-174.8"/>
</g>
<!-- OrderIDAndOddMany1917344214&#45;&gt;Money1917344214 -->
<g id="edge8" class="edge">
<title>OrderIDAndOddMany1917344214&#45;&gt;Money1917344214</title>
<path fill="none" stroke="black" d="M487,-174.58C487,-148.31 487,-112.58 487,-84.25"/>
<polygon fill="black" stroke="black" points="490.5,-84.18 487,-74.18 483.5,-84.18 490.5,-84.18"/>
<text text-anchor="middle" x="527.83" y="-96.2" font-family="Times New Roman,serif" font-size="14.00">містить</text>
</g>
<!-- OrderList1917344214 -->
<g id="node5" class="node">
<title>OrderList1917344214</title>
<polygon fill="#ffffff" stroke="transparent" points="950.5,-586.4 719.5,-586.4 719.5,-536.4 950.5,-536.4 950.5,-586.4"/>
<text text-anchor="start" x="725" y="-568.8" font-family="Times New Roman,serif" font-size="14.00">(C)OrderList</text>
<text text-anchor="start" x="724.89" y="-544.8" font-family="Times New Roman,serif" font-size="14.00">&#45; &#160;&#160;connectionToDataBase: Connection </text>
<polygon fill="black" stroke="black" points="720,-561.4 720,-561.4 951,-561.4 951,-561.4 720,-561.4"/>
<polygon fill="none" stroke="black" points="719.5,-536.4 719.5,-586.4 950.5,-586.4 950.5,-536.4 719.5,-536.4"/>
</g>
<!-- PickUpStation1917344214&#45;&gt;Operator1917344214 -->
<g id="edge9" class="edge">
<title>PickUpStation1917344214&#45;&gt;Operator1917344214</title>
<path fill="none" stroke="black" d="M295.05,-349.58C319.26,-339.68 339,-331.6 339,-331.6 339,-331.6 358.34,-314.8 358.34,-314.8 358.34,-314.8 574,-296.8 574,-296.8 574,-296.8 587.63,-277.39 601.79,-257.24"/>
<polygon fill="black" stroke="black" points="604.75,-259.11 607.64,-248.91 599.02,-255.08 604.75,-259.11"/>
<text text-anchor="middle" x="423.33" y="-319" font-family="Times New Roman,serif" font-size="14.00">вимогає</text>
</g>
<!-- PickUpStation1917344214&#45;&gt;Term1917344214 -->
<g id="edge10" class="edge">
<title>PickUpStation1917344214&#45;&gt;Term1917344214</title>
<path fill="none" stroke="black" d="M147.75,-349.48C107.43,-324.9 61.34,-296.8 61.34,-296.8 61.34,-296.8 56.38,-142.97 54.11,-72.51"/>
<polygon fill="black" stroke="black" points="57.6,-72.23 53.78,-62.35 50.61,-72.45 57.6,-72.23"/>
<text text-anchor="middle" x="127.33" y="-207.6" font-family="Times New Roman,serif" font-size="14.00">вимогає</text>
</g>
<!-- Type1917344214 -->
<g id="node10" class="node">
<title>Type1917344214</title>
<polygon fill="#ffffff" stroke="transparent" points="390.5,-296.8 201.5,-296.8 201.5,-126.8 390.5,-126.8 390.5,-296.8"/>
<text text-anchor="start" x="207" y="-279.2" font-family="Times New Roman,serif" font-size="14.00">(C)Type</text>
<text text-anchor="start" x="206.9" y="-255.2" font-family="Times New Roman,serif" font-size="14.00">&#45; &#160;&#160;create_time: LocalDateTime </text>
<text text-anchor="start" x="207" y="-231.2" font-family="Times New Roman,serif" font-size="14.00">&#45; &#160;&#160;id: Long </text>
<text text-anchor="start" x="207" y="-207.2" font-family="Times New Roman,serif" font-size="14.00">&#45; &#160;&#160;info: String </text>
<text text-anchor="start" x="207" y="-183.2" font-family="Times New Roman,serif" font-size="14.00">&#45; &#160;&#160;money: Money </text>
<text text-anchor="start" x="207" y="-159.2" font-family="Times New Roman,serif" font-size="14.00">&#45; &#160;&#160;name: String </text>
<text text-anchor="start" x="207" y="-135.2" font-family="Times New Roman,serif" font-size="14.00">&#45; &#160;&#160;term: Term </text>
<polygon fill="black" stroke="black" points="202,-271.8 202,-271.8 391,-271.8 391,-271.8 202,-271.8"/>
<polygon fill="none" stroke="black" points="201.5,-126.8 201.5,-296.8 390.5,-296.8 390.5,-126.8 201.5,-126.8"/>
</g>
<!-- PickUpStation1917344214&#45;&gt;Type1917344214 -->
<g id="edge11" class="edge">
<title>PickUpStation1917344214&#45;&gt;Type1917344214</title>
<path fill="none" stroke="black" d="M207.69,-349.37C208.01,-331.95 208.34,-314.8 208.34,-314.8 208.34,-314.8 211.68,-310.92 217.04,-304.67"/>
<polygon fill="black" stroke="black" points="219.75,-306.9 223.61,-297.03 214.44,-302.34 219.75,-306.9"/>
<text text-anchor="middle" x="274.33" y="-319" font-family="Times New Roman,serif" font-size="14.00">вимогає</text>
</g>
<!-- Register1917344214 -->
<g id="node7" class="node">
<title>Register1917344214</title>
<polygon fill="#ffffff" stroke="transparent" points="934,-845.2 736,-845.2 736,-699.2 934,-699.2 934,-845.2"/>
<text text-anchor="start" x="741" y="-827.6" font-family="Times New Roman,serif" font-size="14.00">(C)Register</text>
<text text-anchor="start" x="741" y="-803.6" font-family="Times New Roman,serif" font-size="14.00">&#45; &#160;&#160;order: Order </text>
<text text-anchor="start" x="741" y="-779.6" font-family="Times New Roman,serif" font-size="14.00">&#45; &#160;&#160;orderList: OrderList </text>
<text text-anchor="start" x="740.7" y="-755.6" font-family="Times New Roman,serif" font-size="14.00">&#45; &#160;&#160;pickUpStation: PickUpStation </text>
<text text-anchor="start" x="741" y="-731.6" font-family="Times New Roman,serif" font-size="14.00">&#45; &#160;&#160;ticketList: TicketList </text>
<text text-anchor="start" x="741" y="-707.6" font-family="Times New Roman,serif" font-size="14.00">&#45; &#160;&#160;typeList: TypeList </text>
<polygon fill="black" stroke="black" points="736,-820.2 736,-820.2 934,-820.2 934,-820.2 736,-820.2"/>
<polygon fill="none" stroke="black" points="736,-699.2 736,-845.2 934,-845.2 934,-699.2 736,-699.2"/>
</g>
<!-- Register1917344214&#45;&gt;Order1917344214 -->
<g id="edge12" class="edge">
<title>Register1917344214&#45;&gt;Order1917344214</title>
<path fill="none" stroke="black" d="M757.25,-699.05C741.5,-684.43 724.74,-668.88 708.39,-653.7"/>
<polygon fill="black" stroke="black" points="710.62,-651 700.9,-646.76 705.85,-656.13 710.62,-651"/>
<text text-anchor="middle" x="775.83" y="-668.6" font-family="Times New Roman,serif" font-size="14.00">містить</text>
</g>
<!-- Register1917344214&#45;&gt;OrderList1917344214 -->
<g id="edge13" class="edge">
<title>Register1917344214&#45;&gt;OrderList1917344214</title>
<path fill="none" stroke="black" d="M835,-699.05C835,-664.5 835,-624.73 835,-597.03"/>
<polygon fill="black" stroke="black" points="838.5,-596.68 835,-586.68 831.5,-596.68 838.5,-596.68"/>
<text text-anchor="middle" x="875.83" y="-668.6" font-family="Times New Roman,serif" font-size="14.00">містить</text>
</g>
<!-- Register1917344214&#45;&gt;PickUpStation1917344214 -->
<g id="edge14" class="edge">
<title>Register1917344214&#45;&gt;PickUpStation1917344214</title>
<path fill="none" stroke="black" d="M735.78,-740.75C615.4,-703.81 428.34,-646.4 428.34,-646.4 428.34,-646.4 307.86,-505.54 244.68,-431.66"/>
<polygon fill="black" stroke="black" points="247.17,-429.18 238.01,-423.86 241.85,-433.73 247.17,-429.18"/>
<text text-anchor="middle" x="468.83" y="-557.2" font-family="Times New Roman,serif" font-size="14.00">містить</text>
</g>
<!-- Register1917344214&#45;&gt;TicketList1917344214 -->
<g id="edge15" class="edge">
<title>Register1917344214&#45;&gt;TicketList1917344214</title>
<path fill="none" stroke="black" d="M907.35,-698.96C934.99,-671.37 960,-646.4 960,-646.4 960,-646.4 973,-458.4 973,-458.4 973,-458.4 973,-441.6 973,-441.6 973,-441.6 945.72,-429.01 917.5,-415.98"/>
<polygon fill="black" stroke="black" points="918.89,-412.77 908.34,-411.76 915.95,-419.13 918.89,-412.77"/>
<text text-anchor="middle" x="1011.83" y="-557.2" font-family="Times New Roman,serif" font-size="14.00">містить</text>
</g>
<!-- Register1917344214&#45;&gt;TypeList1917344214 -->
<g id="edge16" class="edge">
<title>Register1917344214&#45;&gt;TypeList1917344214</title>
<path fill="none" stroke="black" d="M934.31,-715.37C993.42,-682.14 1057,-646.4 1057,-646.4 1057,-646.4 1085.53,-492.57 1098.6,-422.11"/>
<polygon fill="black" stroke="black" points="1102.1,-422.42 1100.48,-411.95 1095.22,-421.14 1102.1,-422.42"/>
<text text-anchor="middle" x="1128.83" y="-557.2" font-family="Times New Roman,serif" font-size="14.00">містить</text>
</g>
<!-- Type1917344214&#45;&gt;Money1917344214 -->
<g id="edge17" class="edge">
<title>Type1917344214&#45;&gt;Money1917344214</title>
<path fill="none" stroke="black" d="M370.59,-126.68C387.88,-107.18 401.34,-92 401.34,-92 401.34,-92 411.41,-85.65 424.65,-77.31"/>
<polygon fill="black" stroke="black" points="426.64,-80.19 433.24,-71.89 422.91,-74.26 426.64,-80.19"/>
<text text-anchor="middle" x="441.83" y="-96.2" font-family="Times New Roman,serif" font-size="14.00">містить</text>
</g>
<!-- Type1917344214&#45;&gt;Term1917344214 -->
<g id="edge18" class="edge">
<title>Type1917344214&#45;&gt;Term1917344214</title>
<path fill="none" stroke="black" d="M201.24,-137.1C193.17,-130.82 188,-126.8 188,-126.8 188,-126.8 137.45,-93.55 98.21,-67.74"/>
<polygon fill="black" stroke="black" points="99.81,-64.6 89.53,-62.03 95.96,-70.45 99.81,-64.6"/>
<text text-anchor="middle" x="199.83" y="-96.2" font-family="Times New Roman,serif" font-size="14.00">містить</text>
</g>
<!-- TypeItem1917344214&#45;&gt;Type1917344214 -->
<g id="edge19" class="edge">
<title>TypeItem1917344214&#45;&gt;Type1917344214</title>
<path fill="none" stroke="black" d="M503.74,-349.37C498.33,-331.95 493,-314.8 493,-314.8 493,-314.8 400,-296.8 400,-296.8 400,-296.8 399.51,-296.4 398.59,-295.66"/>
<polygon fill="black" stroke="black" points="400.75,-292.91 390.77,-289.35 396.35,-298.35 400.75,-292.91"/>
<text text-anchor="middle" x="537.83" y="-319" font-family="Times New Roman,serif" font-size="14.00">містить</text>
</g>
</g>
</svg>
