<?xml version="1.0" encoding="UTF-8" standalone="no"?>
<!DOCTYPE svg PUBLIC "-//W3C//DTD SVG 1.1//EN"
 "http://www.w3.org/Graphics/SVG/1.1/DTD/svg11.dtd">
<!-- Generated by graphviz version 2.44.1 (20200629.0846)
 -->
<!-- Title: g Pages: 1 -->
<svg width="2761pt" height="2022pt"
 viewBox="0.00 0.00 2760.50 2022.40" xmlns="http://www.w3.org/2000/svg" xmlns:xlink="http://www.w3.org/1999/xlink">
<g id="graph0" class="graph" transform="scale(1 1) rotate(0) translate(4 2018.4)">
<title>g</title>
<polygon fill="white" stroke="transparent" points="-4,4 -4,-2018.4 2756.5,-2018.4 2756.5,4 -4,4"/>
<!-- Money1917344214 -->
<g id="node1" class="node">
<title>Money1917344214</title>
<polygon fill="#ffffff" stroke="transparent" points="769,-860.8 550,-860.8 550,-690.8 769,-690.8 769,-860.8"/>
<text text-anchor="start" x="555.5" y="-843.2" font-family="Times New Roman,serif" font-size="14.00">(C)Money</text>
<text text-anchor="start" x="555.5" y="-819.2" font-family="Times New Roman,serif" font-size="14.00">&#45; &#160;&#160;unit: String </text>
<text text-anchor="start" x="555.5" y="-795.2" font-family="Times New Roman,serif" font-size="14.00">&#45; &#160;&#160;value: Double </text>
<text text-anchor="start" x="555.15" y="-771.2" font-family="Times New Roman,serif" font-size="14.00">+ Money(value: Double, unit: String)</text>
<text text-anchor="start" x="555.5" y="-747.2" font-family="Times New Roman,serif" font-size="14.00">+ sum(money: Money): Money</text>
<text text-anchor="start" x="555.5" y="-723.2" font-family="Times New Roman,serif" font-size="14.00">+ unit(): String</text>
<text text-anchor="start" x="555.5" y="-699.2" font-family="Times New Roman,serif" font-size="14.00">+ value(): Double</text>
<polygon fill="black" stroke="black" points="550.5,-835.8 550.5,-835.8 769.5,-835.8 769.5,-835.8 550.5,-835.8"/>
<polygon fill="black" stroke="black" points="550.5,-787.8 550.5,-787.8 769.5,-787.8 769.5,-787.8 550.5,-787.8"/>
<polygon fill="none" stroke="black" points="550,-690.8 550,-860.8 769,-860.8 769,-690.8 550,-690.8"/>
</g>
<!-- Operator1917344214 -->
<g id="node2" class="node">
<title>Operator1917344214</title>
<polygon fill="#ffffff" stroke="transparent" points="994,-848.8 787,-848.8 787,-702.8 994,-702.8 994,-848.8"/>
<text text-anchor="start" x="792.5" y="-831.2" font-family="Times New Roman,serif" font-size="14.00">(C)Operator</text>
<text text-anchor="start" x="792.5" y="-807.2" font-family="Times New Roman,serif" font-size="14.00">&#45; &#160;&#160;id: Long </text>
<text text-anchor="start" x="792.5" y="-783.2" font-family="Times New Roman,serif" font-size="14.00">&#45; &#160;&#160;name: String </text>
<text text-anchor="start" x="792.38" y="-759.2" font-family="Times New Roman,serif" font-size="14.00">+ Operator(id: Long, name: String)</text>
<text text-anchor="start" x="792.5" y="-735.2" font-family="Times New Roman,serif" font-size="14.00">+ id(): Long</text>
<text text-anchor="start" x="792.5" y="-711.2" font-family="Times New Roman,serif" font-size="14.00">+ name(): String</text>
<polygon fill="black" stroke="black" points="787.5,-823.8 787.5,-823.8 994.5,-823.8 994.5,-823.8 787.5,-823.8"/>
<polygon fill="black" stroke="black" points="787.5,-775.8 787.5,-775.8 994.5,-775.8 994.5,-775.8 787.5,-775.8"/>
<polygon fill="none" stroke="black" points="787,-702.8 787,-848.8 994,-848.8 994,-702.8 787,-702.8"/>
</g>
<!-- Order1917344214 -->
<g id="node3" class="node">
<title>Order1917344214</title>
<polygon fill="#ffffff" stroke="transparent" points="1357,-1479.6 530,-1479.6 530,-997.6 1357,-997.6 1357,-1479.6"/>
<text text-anchor="start" x="535.5" y="-1462" font-family="Times New Roman,serif" font-size="14.00">(C)Order</text>
<text text-anchor="start" x="535.5" y="-1438" font-family="Times New Roman,serif" font-size="14.00">&#45; &#160;&#160;fullName: String </text>
<text text-anchor="start" x="535.5" y="-1414" font-family="Times New Roman,serif" font-size="14.00">&#45; &#160;&#160;operator: Operator </text>
<text text-anchor="start" x="535.5" y="-1390" font-family="Times New Roman,serif" font-size="14.00">&#45; &#160;&#160;phoneNumber: String </text>
<text text-anchor="start" x="535.5" y="-1366" font-family="Times New Roman,serif" font-size="14.00">&#45; &#160;&#160;price: Money </text>
<text text-anchor="start" x="535.5" y="-1342" font-family="Times New Roman,serif" font-size="14.00">&#45; &#160;&#160;term: Term </text>
<text text-anchor="start" x="535.5" y="-1318" font-family="Times New Roman,serif" font-size="14.00">&#45; &#160;&#160;typeItems: List&lt;TypeItem&gt; </text>
<text text-anchor="start" x="535.5" y="-1294" font-family="Times New Roman,serif" font-size="14.00">&#45; Order()</text>
<text text-anchor="start" x="535.5" y="-1270" font-family="Times New Roman,serif" font-size="14.00">+ addType(name: String, typeList: TypeList, count: int)</text>
<text text-anchor="start" x="535.5" y="-1246" font-family="Times New Roman,serif" font-size="14.00">+ create(): Order</text>
<text text-anchor="start" x="535.5" y="-1222" font-family="Times New Roman,serif" font-size="14.00">+ getFullName(): String</text>
<text text-anchor="start" x="535.5" y="-1198" font-family="Times New Roman,serif" font-size="14.00">+ getOperator(): Operator</text>
<text text-anchor="start" x="535.5" y="-1174" font-family="Times New Roman,serif" font-size="14.00">+ getPhoneNumber(): String</text>
<text text-anchor="start" x="535.5" y="-1150" font-family="Times New Roman,serif" font-size="14.00">+ getPrice(): Money</text>
<text text-anchor="start" x="535.5" y="-1126" font-family="Times New Roman,serif" font-size="14.00">+ getTerm(): Term</text>
<text text-anchor="start" x="535.5" y="-1102" font-family="Times New Roman,serif" font-size="14.00">+ getTypeItems(): List&lt;TypeItem&gt;</text>
<text text-anchor="start" x="535.09" y="-1078" font-family="Times New Roman,serif" font-size="14.00">+ makePayment(countPayMoney: Money, fullName: String, phoneNumber: String, pickUpStation: PickUpStation, ticketList: TicketList): Money</text>
<text text-anchor="start" x="535.5" y="-1054" font-family="Times New Roman,serif" font-size="14.00">+ setFullName(fullName: String)</text>
<text text-anchor="start" x="535.5" y="-1030" font-family="Times New Roman,serif" font-size="14.00">+ setOperator(operator: Operator)</text>
<text text-anchor="start" x="535.5" y="-1006" font-family="Times New Roman,serif" font-size="14.00">+ setPhoneNumber(phoneNumber: String)</text>
<polygon fill="black" stroke="black" points="530.5,-1454.6 530.5,-1454.6 1357.5,-1454.6 1357.5,-1454.6 530.5,-1454.6"/>
<polygon fill="black" stroke="black" points="530.5,-1310.6 530.5,-1310.6 1357.5,-1310.6 1357.5,-1310.6 530.5,-1310.6"/>
<polygon fill="none" stroke="black" points="530,-997.6 530,-1479.6 1357,-1479.6 1357,-997.6 530,-997.6"/>
</g>
<!-- Order1917344214&#45;&gt;Money1917344214 -->
<g id="edge1" class="edge">
<title>Order1917344214&#45;&gt;Money1917344214</title>
<path fill="none" stroke="black" d="M795.47,-997.42C767.49,-952.01 739.82,-907.12 716.82,-869.8"/>
<polygon fill="black" stroke="black" points="719.6,-867.65 711.38,-860.97 713.65,-871.32 719.6,-867.65"/>
<text text-anchor="middle" x="817.33" y="-967" font-family="Times New Roman,serif" font-size="14.00">містить</text>
</g>
<!-- Order1917344214&#45;&gt;Operator1917344214 -->
<g id="edge2" class="edge">
<title>Order1917344214&#45;&gt;Operator1917344214</title>
<path fill="none" stroke="black" d="M915.87,-997.42C910.14,-947.58 904.48,-898.35 899.96,-859.09"/>
<polygon fill="black" stroke="black" points="903.43,-858.6 898.81,-849.07 896.48,-859.4 903.43,-858.6"/>
<text text-anchor="middle" x="953.33" y="-967" font-family="Times New Roman,serif" font-size="14.00">містить</text>
</g>
<!-- Term1917344214 -->
<g id="node9" class="node">
<title>Term1917344214</title>
<polygon fill="#ffffff" stroke="transparent" points="1711,-848.8 1540,-848.8 1540,-702.8 1711,-702.8 1711,-848.8"/>
<text text-anchor="start" x="1545.5" y="-831.2" font-family="Times New Roman,serif" font-size="14.00">(C)Term</text>
<text text-anchor="start" x="1545.5" y="-807.2" font-family="Times New Roman,serif" font-size="14.00">&#45; &#160;&#160;value: Integer </text>
<text text-anchor="start" x="1545.5" y="-783.2" font-family="Times New Roman,serif" font-size="14.00">+ Term(value: Integer)</text>
<text text-anchor="start" x="1545.5" y="-759.2" font-family="Times New Roman,serif" font-size="14.00">+ sum(term: Term): Term</text>
<text text-anchor="start" x="1545.08" y="-735.2" font-family="Times New Roman,serif" font-size="14.00">+ toLocalTime(): LocalTime</text>
<text text-anchor="start" x="1545.5" y="-711.2" font-family="Times New Roman,serif" font-size="14.00">+ value(): Integer</text>
<polygon fill="black" stroke="black" points="1540.5,-823.8 1540.5,-823.8 1711.5,-823.8 1711.5,-823.8 1540.5,-823.8"/>
<polygon fill="black" stroke="black" points="1540.5,-799.8 1540.5,-799.8 1711.5,-799.8 1711.5,-799.8 1540.5,-799.8"/>
<polygon fill="none" stroke="black" points="1540,-702.8 1540,-848.8 1711,-848.8 1711,-702.8 1540,-702.8"/>
</g>
<!-- Order1917344214&#45;&gt;Term1917344214 -->
<g id="edge3" class="edge">
<title>Order1917344214&#45;&gt;Term1917344214</title>
<path fill="none" stroke="black" d="M1357.01,-1005.72C1366.29,-1000.52 1371.5,-997.6 1371.5,-997.6 1371.5,-997.6 1530.5,-944.8 1530.5,-944.8 1530.5,-944.8 1555.37,-900.82 1579.66,-857.87"/>
<polygon fill="black" stroke="black" points="1582.78,-859.45 1584.66,-849.02 1576.69,-856 1582.78,-859.45"/>
<text text-anchor="middle" x="1515.33" y="-967" font-family="Times New Roman,serif" font-size="14.00">містить</text>
</g>
<!-- TicketList1917344214 -->
<g id="node11" class="node">
<title>TicketList1917344214</title>
<polygon fill="#ffffff" stroke="transparent" points="531.5,-944.8 169.5,-944.8 169.5,-606.8 531.5,-606.8 531.5,-944.8"/>
<text text-anchor="start" x="174.5" y="-927.2" font-family="Times New Roman,serif" font-size="14.00">(C)TicketList</text>
<text text-anchor="start" x="174.5" y="-903.2" font-family="Times New Roman,serif" font-size="14.00">&#45; &#160;&#160;connectionToDataBase: Connection </text>
<text text-anchor="start" x="174.5" y="-879.2" font-family="Times New Roman,serif" font-size="14.00">+ TicketList(connectionToDataBase: Connection)</text>
<text text-anchor="start" x="174.5" y="-855.2" font-family="Times New Roman,serif" font-size="14.00">&#45; checkAffectRows(affectedRows: int)</text>
<text text-anchor="start" x="174.5" y="-831.2" font-family="Times New Roman,serif" font-size="14.00">+ connectionToDataBase(): Connection</text>
<text text-anchor="start" x="174.5" y="-807.2" font-family="Times New Roman,serif" font-size="14.00">+ createTicket(idOrder: long): long</text>
<text text-anchor="start" x="174.5" y="-783.2" font-family="Times New Roman,serif" font-size="14.00">+ getAllMadeTickets(): List&lt;Ticket&gt;</text>
<text text-anchor="start" x="174.4" y="-759.2" font-family="Times New Roman,serif" font-size="14.00">+ getAllNotMadeTickets(fullNameStaff: String): List&lt;Ticket&gt;</text>
<text text-anchor="start" x="174.5" y="-735.2" font-family="Times New Roman,serif" font-size="14.00">+ getAllTickets(): List&lt;Ticket&gt;</text>
<text text-anchor="start" x="174.5" y="-711.2" font-family="Times New Roman,serif" font-size="14.00">&#45; getId(statement: PreparedStatement): long</text>
<text text-anchor="start" x="174.5" y="-687.2" font-family="Times New Roman,serif" font-size="14.00">&#45; getTickets(statement: PreparedStatement): List&lt;Ticket&gt;</text>
<text text-anchor="start" x="174.5" y="-663.2" font-family="Times New Roman,serif" font-size="14.00">&#45; insertTicket(idOrder: long): long</text>
<text text-anchor="start" x="174.5" y="-639.2" font-family="Times New Roman,serif" font-size="14.00">+ setEndOrderTicket(id: long)</text>
<text text-anchor="start" x="174.5" y="-615.2" font-family="Times New Roman,serif" font-size="14.00">+ setMadeOrderTicket(id: long)</text>
<polygon fill="black" stroke="black" points="169.5,-919.8 169.5,-919.8 531.5,-919.8 531.5,-919.8 169.5,-919.8"/>
<polygon fill="black" stroke="black" points="169.5,-895.8 169.5,-895.8 531.5,-895.8 531.5,-895.8 169.5,-895.8"/>
<polygon fill="none" stroke="black" points="169.5,-606.8 169.5,-944.8 531.5,-944.8 531.5,-606.8 169.5,-606.8"/>
</g>
<!-- Order1917344214&#45;&gt;TicketList1917344214 -->
<g id="edge4" class="edge">
<title>Order1917344214&#45;&gt;TicketList1917344214</title>
<path fill="none" stroke="black" d="M613.01,-997.48C569.99,-966.23 540.5,-944.8 540.5,-944.8 540.5,-944.8 540.04,-944.4 539.17,-943.63"/>
<polygon fill="black" stroke="black" points="541.4,-940.92 531.59,-936.92 536.76,-946.17 541.4,-940.92"/>
<text text-anchor="middle" x="657.36" y="-967" font-family="Times New Roman,serif" font-size="14.00">створюєт, фіксуєт</text>
</g>
<!-- TypeItem1917344214 -->
<g id="node13" class="node">
<title>TypeItem1917344214</title>
<polygon fill="#ffffff" stroke="transparent" points="1217,-872.8 1012,-872.8 1012,-678.8 1217,-678.8 1217,-872.8"/>
<text text-anchor="start" x="1017.5" y="-855.2" font-family="Times New Roman,serif" font-size="14.00">(C)TypeItem</text>
<text text-anchor="start" x="1017.5" y="-831.2" font-family="Times New Roman,serif" font-size="14.00">&#45; &#160;&#160;count: int </text>
<text text-anchor="start" x="1017.5" y="-807.2" font-family="Times New Roman,serif" font-size="14.00">&#45; &#160;&#160;type: Type </text>
<text text-anchor="start" x="1017.16" y="-783.2" font-family="Times New Roman,serif" font-size="14.00">+ TypeItem(type: Type, count: int)</text>
<text text-anchor="start" x="1017.5" y="-759.2" font-family="Times New Roman,serif" font-size="14.00">+ count(): int</text>
<text text-anchor="start" x="1017.5" y="-735.2" font-family="Times New Roman,serif" font-size="14.00">+ getMoney(): Money</text>
<text text-anchor="start" x="1017.5" y="-711.2" font-family="Times New Roman,serif" font-size="14.00">+ getTerm(): Term</text>
<text text-anchor="start" x="1017.5" y="-687.2" font-family="Times New Roman,serif" font-size="14.00">+ type(): Type</text>
<polygon fill="black" stroke="black" points="1012.5,-847.8 1012.5,-847.8 1217.5,-847.8 1217.5,-847.8 1012.5,-847.8"/>
<polygon fill="black" stroke="black" points="1012.5,-799.8 1012.5,-799.8 1217.5,-799.8 1217.5,-799.8 1012.5,-799.8"/>
<polygon fill="none" stroke="black" points="1012,-678.8 1012,-872.8 1217,-872.8 1217,-678.8 1012,-678.8"/>
</g>
<!-- Order1917344214&#45;&gt;TypeItem1917344214 -->
<g id="edge5" class="edge">
<title>Order1917344214&#45;&gt;TypeItem1917344214</title>
<path fill="none" stroke="black" d="M1032.63,-997.42C1047.6,-957.08 1062.42,-917.15 1075.25,-882.57"/>
<polygon fill="black" stroke="black" points="1078.62,-883.55 1078.82,-872.96 1072.05,-881.12 1078.62,-883.55"/>
<text text-anchor="middle" x="1085.33" y="-967" font-family="Times New Roman,serif" font-size="14.00">містить</text>
</g>
<!-- TypeList1917344214 -->
<g id="node14" class="node">
<title>TypeList1917344214</title>
<polygon fill="#ffffff" stroke="transparent" points="1521.5,-836.8 1235.5,-836.8 1235.5,-714.8 1521.5,-714.8 1521.5,-836.8"/>
<text text-anchor="start" x="1240.5" y="-819.2" font-family="Times New Roman,serif" font-size="14.00">(C)TypeList</text>
<text text-anchor="start" x="1240.5" y="-795.2" font-family="Times New Roman,serif" font-size="14.00">&#45; &#160;&#160;connectionToDataBase: Connection </text>
<text text-anchor="start" x="1240.5" y="-771.2" font-family="Times New Roman,serif" font-size="14.00">+ TypeList(connectionToDataBase: Connection)</text>
<text text-anchor="start" x="1240.5" y="-747.2" font-family="Times New Roman,serif" font-size="14.00">+ getType(typeName: String): Type</text>
<text text-anchor="start" x="1240.5" y="-723.2" font-family="Times New Roman,serif" font-size="14.00">+ getTypes(likeNameTypes: String): List&lt;Type&gt;</text>
<polygon fill="black" stroke="black" points="1235.5,-811.8 1235.5,-811.8 1521.5,-811.8 1521.5,-811.8 1235.5,-811.8"/>
<polygon fill="black" stroke="black" points="1235.5,-787.8 1235.5,-787.8 1521.5,-787.8 1521.5,-787.8 1235.5,-787.8"/>
<polygon fill="none" stroke="black" points="1235.5,-714.8 1235.5,-836.8 1521.5,-836.8 1521.5,-714.8 1235.5,-714.8"/>
</g>
<!-- Order1917344214&#45;&gt;TypeList1917344214 -->
<g id="edge6" class="edge">
<title>Order1917344214&#45;&gt;TypeList1917344214</title>
<path fill="none" stroke="black" d="M1174.76,-997.48C1204.86,-966.23 1225.5,-944.8 1225.5,-944.8 1225.5,-944.8 1274.42,-891.08 1316.94,-844.4"/>
<polygon fill="black" stroke="black" points="1319.55,-846.73 1323.7,-836.98 1314.37,-842.01 1319.55,-846.73"/>
<text text-anchor="middle" x="1271.83" y="-967" font-family="Times New Roman,serif" font-size="14.00">вимагає</text>
</g>
<!-- OrderIDAndOddMany1917344214 -->
<g id="node4" class="node">
<title>OrderIDAndOddMany1917344214</title>
<polygon fill="#ffffff" stroke="transparent" points="2246.5,-848.8 1896.5,-848.8 1896.5,-702.8 2246.5,-702.8 2246.5,-848.8"/>
<text text-anchor="start" x="1901.5" y="-831.2" font-family="Times New Roman,serif" font-size="14.00">(C)OrderIDAndOddMany</text>
<text text-anchor="start" x="1901.5" y="-807.2" font-family="Times New Roman,serif" font-size="14.00">&#45; &#160;&#160;oddMoney: Money </text>
<text text-anchor="start" x="1901.5" y="-783.2" font-family="Times New Roman,serif" font-size="14.00">&#45; &#160;&#160;orderID: long </text>
<text text-anchor="start" x="1901.35" y="-759.2" font-family="Times New Roman,serif" font-size="14.00">+ OrderIDAndOddMany(orderID: long, oddMoney: Money)</text>
<text text-anchor="start" x="1901.5" y="-735.2" font-family="Times New Roman,serif" font-size="14.00">+ oddMoney(): Money</text>
<text text-anchor="start" x="1901.5" y="-711.2" font-family="Times New Roman,serif" font-size="14.00">+ orderID(): long</text>
<polygon fill="black" stroke="black" points="1896.5,-823.8 1896.5,-823.8 2246.5,-823.8 2246.5,-823.8 1896.5,-823.8"/>
<polygon fill="black" stroke="black" points="1896.5,-775.8 1896.5,-775.8 2246.5,-775.8 2246.5,-775.8 1896.5,-775.8"/>
<polygon fill="none" stroke="black" points="1896.5,-702.8 1896.5,-848.8 2246.5,-848.8 2246.5,-702.8 1896.5,-702.8"/>
</g>
<!-- OrderList1917344214 -->
<g id="node5" class="node">
<title>OrderList1917344214</title>
<polygon fill="#ffffff" stroke="transparent" points="2528.5,-1299.6 2128.5,-1299.6 2128.5,-1177.6 2528.5,-1177.6 2528.5,-1299.6"/>
<text text-anchor="start" x="2133.5" y="-1282" font-family="Times New Roman,serif" font-size="14.00">(C)OrderList</text>
<text text-anchor="start" x="2133.5" y="-1258" font-family="Times New Roman,serif" font-size="14.00">&#45; &#160;&#160;connectionToDataBase: Connection </text>
<text text-anchor="start" x="2133.5" y="-1234" font-family="Times New Roman,serif" font-size="14.00">+ OrderList(connectionToDataBase: Connection)</text>
<text text-anchor="start" x="2133.5" y="-1210" font-family="Times New Roman,serif" font-size="14.00">+ connectionToDataBase(): Connection</text>
<text text-anchor="start" x="2133.09" y="-1186" font-family="Times New Roman,serif" font-size="14.00">+ getFullInfoAboutOrder(ticketId: long): OrderViewAndTypesViews</text>
<polygon fill="black" stroke="black" points="2128.5,-1274.6 2128.5,-1274.6 2528.5,-1274.6 2528.5,-1274.6 2128.5,-1274.6"/>
<polygon fill="black" stroke="black" points="2128.5,-1250.6 2128.5,-1250.6 2528.5,-1250.6 2528.5,-1250.6 2128.5,-1250.6"/>
<polygon fill="none" stroke="black" points="2128.5,-1177.6 2128.5,-1299.6 2528.5,-1299.6 2528.5,-1177.6 2128.5,-1177.6"/>
</g>
<!-- OrderViewAndTypesViews1917344214 -->
<g id="node6" class="node">
<title>OrderViewAndTypesViews1917344214</title>
<polygon fill="#ffffff" stroke="transparent" points="2752.5,-848.8 2264.5,-848.8 2264.5,-702.8 2752.5,-702.8 2752.5,-848.8"/>
<text text-anchor="start" x="2269.5" y="-831.2" font-family="Times New Roman,serif" font-size="14.00">(C)OrderViewAndTypesViews</text>
<text text-anchor="start" x="2269.5" y="-807.2" font-family="Times New Roman,serif" font-size="14.00">&#45; &#160;&#160;orderView: OrderView </text>
<text text-anchor="start" x="2269.5" y="-783.2" font-family="Times New Roman,serif" font-size="14.00">&#45; &#160;&#160;typeViews: List&lt;TypeView&gt; </text>
<text text-anchor="start" x="2269.06" y="-759.2" font-family="Times New Roman,serif" font-size="14.00">+ OrderViewAndTypesViews(orderView: OrderView, typeViews: List&lt;TypeView&gt;)</text>
<text text-anchor="start" x="2269.5" y="-735.2" font-family="Times New Roman,serif" font-size="14.00">+ orderView(): OrderView</text>
<text text-anchor="start" x="2269.5" y="-711.2" font-family="Times New Roman,serif" font-size="14.00">+ typeViews(): List&lt;TypeView&gt;</text>
<polygon fill="black" stroke="black" points="2264.5,-823.8 2264.5,-823.8 2752.5,-823.8 2752.5,-823.8 2264.5,-823.8"/>
<polygon fill="black" stroke="black" points="2264.5,-775.8 2264.5,-775.8 2752.5,-775.8 2752.5,-775.8 2264.5,-775.8"/>
<polygon fill="none" stroke="black" points="2264.5,-702.8 2264.5,-848.8 2752.5,-848.8 2752.5,-702.8 2264.5,-702.8"/>
</g>
<!-- OrderList1917344214&#45;&gt;OrderViewAndTypesViews1917344214 -->
<g id="edge7" class="edge">
<title>OrderList1917344214&#45;&gt;OrderViewAndTypesViews1917344214</title>
<path fill="none" stroke="black" d="M2352.03,-1177.36C2383.92,-1095.72 2440.97,-949.67 2476.67,-858.29"/>
<polygon fill="black" stroke="black" points="2479.99,-859.39 2480.37,-848.8 2473.47,-856.85 2479.99,-859.39"/>
<text text-anchor="middle" x="2499.83" y="-967" font-family="Times New Roman,serif" font-size="14.00">вимагає</text>
</g>
<!-- PickUpStation1917344214 -->
<g id="node7" class="node">
<title>PickUpStation1917344214</title>
<polygon fill="#ffffff" stroke="transparent" points="1929,-1431.6 1508,-1431.6 1508,-1045.6 1929,-1045.6 1929,-1431.6"/>
<text text-anchor="start" x="1513.5" y="-1414" font-family="Times New Roman,serif" font-size="14.00">(C)PickUpStation</text>
<text text-anchor="start" x="1513.5" y="-1390" font-family="Times New Roman,serif" font-size="14.00">&#45; &#160;&#160;address: String </text>
<text text-anchor="start" x="1513.5" y="-1366" font-family="Times New Roman,serif" font-size="14.00">&#45; &#160;&#160;connectionToDataBase: Connection </text>
<text text-anchor="start" x="1513.5" y="-1342" font-family="Times New Roman,serif" font-size="14.00">+ PickUpStation(connectionToDataBase: Connection, address: String)</text>
<text text-anchor="start" x="1513.5" y="-1318" font-family="Times New Roman,serif" font-size="14.00">+ address(): String</text>
<text text-anchor="start" x="1513.5" y="-1294" font-family="Times New Roman,serif" font-size="14.00">&#45; checkAffectRows(affectedRows: int)</text>
<text text-anchor="start" x="1513.5" y="-1270" font-family="Times New Roman,serif" font-size="14.00">+ connectionToDataBase(): Connection</text>
<text text-anchor="start" x="1513.29" y="-1246" font-family="Times New Roman,serif" font-size="14.00">+ fixSale(order: Order, countPayMoney: Money): OrderIDAndOddMany</text>
<text text-anchor="start" x="1513.5" y="-1222" font-family="Times New Roman,serif" font-size="14.00">&#45; getId(statement: PreparedStatement): long</text>
<text text-anchor="start" x="1513.5" y="-1198" font-family="Times New Roman,serif" font-size="14.00">+ getOperator(): Operator</text>
<text text-anchor="start" x="1513.5" y="-1174" font-family="Times New Roman,serif" font-size="14.00">&#45; insertClient(id: long): long</text>
<text text-anchor="start" x="1513.5" y="-1150" font-family="Times New Roman,serif" font-size="14.00">&#45; insertContactInfo(order: Order): long</text>
<text text-anchor="start" x="1513.5" y="-1126" font-family="Times New Roman,serif" font-size="14.00">&#45; insertMoney(order: Order): long</text>
<text text-anchor="start" x="1513.5" y="-1102" font-family="Times New Roman,serif" font-size="14.00">&#45; insertOrder(idMoney: long, idClient: long): long</text>
<text text-anchor="start" x="1513.5" y="-1078" font-family="Times New Roman,serif" font-size="14.00">&#45; insertOrderStaff(idOrder: long, operator: Operator)</text>
<text text-anchor="start" x="1513.5" y="-1054" font-family="Times New Roman,serif" font-size="14.00">&#45; insertTypeServiceOrder(idOrder: long, type: TypeItem, term: Term)</text>
<polygon fill="black" stroke="black" points="1508.5,-1406.6 1508.5,-1406.6 1929.5,-1406.6 1929.5,-1406.6 1508.5,-1406.6"/>
<polygon fill="black" stroke="black" points="1508.5,-1358.6 1508.5,-1358.6 1929.5,-1358.6 1929.5,-1358.6 1508.5,-1358.6"/>
<polygon fill="none" stroke="black" points="1508,-1045.6 1508,-1431.6 1929,-1431.6 1929,-1045.6 1508,-1045.6"/>
</g>
<!-- PickUpStation1917344214&#45;&gt;OrderIDAndOddMany1917344214 -->
<g id="edge8" class="edge">
<title>PickUpStation1917344214&#45;&gt;OrderIDAndOddMany1917344214</title>
<path fill="none" stroke="black" d="M1865.65,-1045.52C1916.2,-979.53 1970.05,-909.23 2009.99,-857.09"/>
<polygon fill="black" stroke="black" points="2012.98,-858.95 2016.28,-848.88 2007.42,-854.69 2012.98,-858.95"/>
<text text-anchor="middle" x="1957.61" y="-967" font-family="Times New Roman,serif" font-size="14.00">фіксуєт</text>
</g>
<!-- PickUpStation1917344214&#45;&gt;Term1917344214 -->
<g id="edge9" class="edge">
<title>PickUpStation1917344214&#45;&gt;Term1917344214</title>
<path fill="none" stroke="black" d="M1632.32,-1045.37C1615.44,-1007.71 1602.84,-979.6 1602.84,-979.6 1602.84,-979.6 1602.84,-962.8 1602.84,-962.8 1602.84,-962.8 1609.4,-908.94 1615.46,-859.18"/>
<polygon fill="black" stroke="black" points="1618.97,-859.33 1616.71,-848.98 1612.02,-858.48 1618.97,-859.33"/>
<text text-anchor="middle" x="1667.83" y="-967" font-family="Times New Roman,serif" font-size="14.00">вимагає</text>
</g>
<!-- Type1917344214 -->
<g id="node12" class="node">
<title>Type1917344214</title>
<polygon fill="#ffffff" stroke="transparent" points="1725,-446 1138,-446 1138,-108 1725,-108 1725,-446"/>
<text text-anchor="start" x="1143.5" y="-428.4" font-family="Times New Roman,serif" font-size="14.00">(C)Type</text>
<text text-anchor="start" x="1143.5" y="-404.4" font-family="Times New Roman,serif" font-size="14.00">&#45; &#160;&#160;create_time: LocalDateTime </text>
<text text-anchor="start" x="1143.5" y="-380.4" font-family="Times New Roman,serif" font-size="14.00">&#45; &#160;&#160;id: Long </text>
<text text-anchor="start" x="1143.5" y="-356.4" font-family="Times New Roman,serif" font-size="14.00">&#45; &#160;&#160;info: String </text>
<text text-anchor="start" x="1143.5" y="-332.4" font-family="Times New Roman,serif" font-size="14.00">&#45; &#160;&#160;money: Money </text>
<text text-anchor="start" x="1143.5" y="-308.4" font-family="Times New Roman,serif" font-size="14.00">&#45; &#160;&#160;name: String </text>
<text text-anchor="start" x="1143.5" y="-284.4" font-family="Times New Roman,serif" font-size="14.00">&#45; &#160;&#160;term: Term </text>
<text text-anchor="start" x="1143.26" y="-260.4" font-family="Times New Roman,serif" font-size="14.00">+ Type(id: Long, name: String, info: String, term: Term, money: Money, create_time: LocalDateTime)</text>
<text text-anchor="start" x="1143.5" y="-236.4" font-family="Times New Roman,serif" font-size="14.00">+ create_time(): LocalDateTime</text>
<text text-anchor="start" x="1143.5" y="-212.4" font-family="Times New Roman,serif" font-size="14.00">+ id(): Long</text>
<text text-anchor="start" x="1143.5" y="-188.4" font-family="Times New Roman,serif" font-size="14.00">+ info(): String</text>
<text text-anchor="start" x="1143.5" y="-164.4" font-family="Times New Roman,serif" font-size="14.00">+ money(): Money</text>
<text text-anchor="start" x="1143.5" y="-140.4" font-family="Times New Roman,serif" font-size="14.00">+ name(): String</text>
<text text-anchor="start" x="1143.5" y="-116.4" font-family="Times New Roman,serif" font-size="14.00">+ term(): Term</text>
<polygon fill="black" stroke="black" points="1138.5,-421 1138.5,-421 1725.5,-421 1725.5,-421 1138.5,-421"/>
<polygon fill="black" stroke="black" points="1138.5,-277 1138.5,-277 1725.5,-277 1725.5,-277 1138.5,-277"/>
<polygon fill="none" stroke="black" points="1138,-108 1138,-446 1725,-446 1725,-108 1138,-108"/>
</g>
<!-- PickUpStation1917344214&#45;&gt;Type1917344214 -->
<g id="edge10" class="edge">
<title>PickUpStation1917344214&#45;&gt;Type1917344214</title>
<path fill="none" stroke="black" d="M1729.68,-1045.37C1731.87,-1007.71 1733.5,-979.6 1733.5,-979.6 1733.5,-979.6 1733.5,-962.8 1733.5,-962.8 1733.5,-962.8 1720.5,-606.8 1720.5,-606.8 1720.5,-606.8 1654.8,-532.05 1586.05,-453.83"/>
<polygon fill="black" stroke="black" points="1588.62,-451.45 1579.39,-446.25 1583.36,-456.07 1588.62,-451.45"/>
<text text-anchor="middle" x="1797.83" y="-771.6" font-family="Times New Roman,serif" font-size="14.00">вимагає</text>
</g>
<!-- Register1917344214 -->
<g id="node8" class="node">
<title>Register1917344214</title>
<polygon fill="#ffffff" stroke="transparent" points="1695,-2014.4 1092,-2014.4 1092,-1532.4 1695,-1532.4 1695,-2014.4"/>
<text text-anchor="start" x="1097.5" y="-1996.8" font-family="Times New Roman,serif" font-size="14.00">(C)Register</text>
<text text-anchor="start" x="1097.5" y="-1972.8" font-family="Times New Roman,serif" font-size="14.00">&#45; &#160;&#160;order: Order </text>
<text text-anchor="start" x="1097.5" y="-1948.8" font-family="Times New Roman,serif" font-size="14.00">&#45; &#160;&#160;orderList: OrderList </text>
<text text-anchor="start" x="1097.5" y="-1924.8" font-family="Times New Roman,serif" font-size="14.00">&#45; &#160;&#160;pickUpStation: PickUpStation </text>
<text text-anchor="start" x="1097.5" y="-1900.8" font-family="Times New Roman,serif" font-size="14.00">&#45; &#160;&#160;ticketList: TicketList </text>
<text text-anchor="start" x="1097.5" y="-1876.8" font-family="Times New Roman,serif" font-size="14.00">&#45; &#160;&#160;typeList: TypeList </text>
<text text-anchor="start" x="1097.47" y="-1852.8" font-family="Times New Roman,serif" font-size="14.00">+ Register(typeList: TypeList, pickUpStation: PickUpStation, ticketList: TicketList, orderList: OrderList)</text>
<text text-anchor="start" x="1097.5" y="-1828.8" font-family="Times New Roman,serif" font-size="14.00">+ addType(name: String, count: int): List&lt;TypeItem&gt;</text>
<text text-anchor="start" x="1097.5" y="-1804.8" font-family="Times New Roman,serif" font-size="14.00">+ getAllMadeTickets(): List&lt;Ticket&gt;</text>
<text text-anchor="start" x="1097.5" y="-1780.8" font-family="Times New Roman,serif" font-size="14.00">+ getAllNotMadeTickets(fullNameStaff: String): List&lt;Ticket&gt;</text>
<text text-anchor="start" x="1097.5" y="-1756.8" font-family="Times New Roman,serif" font-size="14.00">+ getAllTickets(): List&lt;Ticket&gt;</text>
<text text-anchor="start" x="1097.5" y="-1732.8" font-family="Times New Roman,serif" font-size="14.00">+ getFullInfoAboutOrder(TicketId: long): OrderViewAndTypesViews</text>
<text text-anchor="start" x="1097.5" y="-1708.8" font-family="Times New Roman,serif" font-size="14.00">+ getOrderTypes(): List&lt;TypeItem&gt;</text>
<text text-anchor="start" x="1097.5" y="-1684.8" font-family="Times New Roman,serif" font-size="14.00">+ getPrice(): Money</text>
<text text-anchor="start" x="1097.5" y="-1660.8" font-family="Times New Roman,serif" font-size="14.00">+ getTerm(): Term</text>
<text text-anchor="start" x="1097.5" y="-1636.8" font-family="Times New Roman,serif" font-size="14.00">+ getTypes(likeNameTypes: String): List&lt;Type&gt;</text>
<text text-anchor="start" x="1097.5" y="-1612.8" font-family="Times New Roman,serif" font-size="14.00">+ giveTheOrder(TicketId: long)</text>
<text text-anchor="start" x="1097.5" y="-1588.8" font-family="Times New Roman,serif" font-size="14.00">+ madeTheOrder(TicketId: long)</text>
<text text-anchor="start" x="1097.5" y="-1564.8" font-family="Times New Roman,serif" font-size="14.00">+ makePayment(countPayMoney: Money, fullName: String, phoneNumber: String): Money</text>
<text text-anchor="start" x="1097.5" y="-1540.8" font-family="Times New Roman,serif" font-size="14.00">+ newOrder()</text>
<polygon fill="black" stroke="black" points="1092.5,-1989.4 1092.5,-1989.4 1695.5,-1989.4 1695.5,-1989.4 1092.5,-1989.4"/>
<polygon fill="black" stroke="black" points="1092.5,-1869.4 1092.5,-1869.4 1695.5,-1869.4 1695.5,-1869.4 1092.5,-1869.4"/>
<polygon fill="none" stroke="black" points="1092,-1532.4 1092,-2014.4 1695,-2014.4 1695,-1532.4 1092,-1532.4"/>
</g>
<!-- Register1917344214&#45;&gt;Order1917344214 -->
<g id="edge11" class="edge">
<title>Register1917344214&#45;&gt;Order1917344214</title>
<path fill="none" stroke="black" d="M1190.55,-1532.11C1178.05,-1517.3 1165.45,-1502.39 1152.92,-1487.55"/>
<polygon fill="black" stroke="black" points="1155.5,-1485.18 1146.37,-1479.8 1150.15,-1489.69 1155.5,-1485.18"/>
<text text-anchor="middle" x="1209.33" y="-1501.8" font-family="Times New Roman,serif" font-size="14.00">містить</text>
</g>
<!-- Register1917344214&#45;&gt;OrderList1917344214 -->
<g id="edge12" class="edge">
<title>Register1917344214&#45;&gt;OrderList1917344214</title>
<path fill="none" stroke="black" d="M1695.09,-1610.37C1820.98,-1542.74 1938.5,-1479.6 1938.5,-1479.6 1938.5,-1479.6 2106.79,-1376.04 2222.27,-1304.97"/>
<polygon fill="black" stroke="black" points="2224.16,-1307.92 2230.84,-1299.7 2220.49,-1301.96 2224.16,-1307.92"/>
<text text-anchor="middle" x="1941.33" y="-1501.8" font-family="Times New Roman,serif" font-size="14.00">містить</text>
</g>
<!-- Register1917344214&#45;&gt;PickUpStation1917344214 -->
<g id="edge13" class="edge">
<title>Register1917344214&#45;&gt;PickUpStation1917344214</title>
<path fill="none" stroke="black" d="M1540.07,-1532.11C1558.69,-1501.59 1577.59,-1470.61 1595.78,-1440.79"/>
<polygon fill="black" stroke="black" points="1598.92,-1442.35 1601.14,-1431.99 1592.95,-1438.71 1598.92,-1442.35"/>
<text text-anchor="middle" x="1596.33" y="-1501.8" font-family="Times New Roman,serif" font-size="14.00">містить</text>
</g>
<!-- Register1917344214&#45;&gt;TicketList1917344214 -->
<g id="edge14" class="edge">
<title>Register1917344214&#45;&gt;TicketList1917344214</title>
<path fill="none" stroke="black" d="M1091.77,-1679.86C812.05,-1594.06 438.84,-1479.6 438.84,-1479.6 438.84,-1479.6 399.11,-1163.49 372.93,-955.28"/>
<polygon fill="black" stroke="black" points="376.38,-954.62 371.66,-945.14 369.43,-955.5 376.38,-954.62"/>
<text text-anchor="middle" x="480.33" y="-1234.4" font-family="Times New Roman,serif" font-size="14.00">містить</text>
</g>
<!-- Register1917344214&#45;&gt;TypeList1917344214 -->
<g id="edge15" class="edge">
<title>Register1917344214&#45;&gt;TypeList1917344214</title>
<path fill="none" stroke="black" d="M1389.88,-1532.34C1386.5,-1308.08 1381.67,-987.44 1379.56,-847.1"/>
<polygon fill="black" stroke="black" points="1383.06,-846.85 1379.41,-836.91 1376.06,-846.96 1383.06,-846.85"/>
<text text-anchor="middle" x="1429.33" y="-1234.4" font-family="Times New Roman,serif" font-size="14.00">містить</text>
</g>
<!-- Ticket1917344214 -->
<g id="node10" class="node">
<title>Ticket1917344214</title>
<polygon fill="#ffffff" stroke="transparent" points="701,-554 0,-554 0,0 701,0 701,-554"/>
<text text-anchor="start" x="5.5" y="-536.4" font-family="Times New Roman,serif" font-size="14.00">(C)Ticket</text>
<text text-anchor="start" x="5.5" y="-512.4" font-family="Times New Roman,serif" font-size="14.00">&#45; &#160;&#160;fullName: String </text>
<text text-anchor="start" x="5.5" y="-488.4" font-family="Times New Roman,serif" font-size="14.00">&#45; &#160;&#160;id: long </text>
<text text-anchor="start" x="5.5" y="-464.4" font-family="Times New Roman,serif" font-size="14.00">&#45; &#160;&#160;isDone: boolean </text>
<text text-anchor="start" x="5.5" y="-440.4" font-family="Times New Roman,serif" font-size="14.00">&#45; &#160;&#160;isReady: boolean </text>
<text text-anchor="start" x="5.5" y="-416.4" font-family="Times New Roman,serif" font-size="14.00">&#45; &#160;&#160;name: String </text>
<text text-anchor="start" x="5.5" y="-392.4" font-family="Times New Roman,serif" font-size="14.00">&#45; &#160;&#160;orderId: long </text>
<text text-anchor="start" x="5.5" y="-368.4" font-family="Times New Roman,serif" font-size="14.00">&#45; &#160;&#160;phoneNumber: String </text>
<text text-anchor="start" x="5.29" y="-344.4" font-family="Times New Roman,serif" font-size="14.00">+ Ticket(id: long, orderId: long, name: String, isReady: boolean, isDone: boolean, fullName: String, phoneNumber: String)</text>
<text text-anchor="start" x="5.5" y="-320.4" font-family="Times New Roman,serif" font-size="14.00">+ getFullName(): String</text>
<text text-anchor="start" x="5.5" y="-296.4" font-family="Times New Roman,serif" font-size="14.00">+ getId(): long</text>
<text text-anchor="start" x="5.5" y="-272.4" font-family="Times New Roman,serif" font-size="14.00">+ getIsDone(): boolean</text>
<text text-anchor="start" x="5.5" y="-248.4" font-family="Times New Roman,serif" font-size="14.00">+ getIsReady(): boolean</text>
<text text-anchor="start" x="5.5" y="-224.4" font-family="Times New Roman,serif" font-size="14.00">+ getName(): String</text>
<text text-anchor="start" x="5.5" y="-200.4" font-family="Times New Roman,serif" font-size="14.00">+ getOrderId(): long</text>
<text text-anchor="start" x="5.5" y="-176.4" font-family="Times New Roman,serif" font-size="14.00">+ getPhoneNumber(): String</text>
<text text-anchor="start" x="5.5" y="-152.4" font-family="Times New Roman,serif" font-size="14.00">+ setFullName(fullName: String)</text>
<text text-anchor="start" x="5.5" y="-128.4" font-family="Times New Roman,serif" font-size="14.00">+ setId(id: long)</text>
<text text-anchor="start" x="5.5" y="-104.4" font-family="Times New Roman,serif" font-size="14.00">+ setIsDone(done: boolean)</text>
<text text-anchor="start" x="5.5" y="-80.4" font-family="Times New Roman,serif" font-size="14.00">+ setIsReady(ready: boolean)</text>
<text text-anchor="start" x="5.5" y="-56.4" font-family="Times New Roman,serif" font-size="14.00">+ setName(name: String)</text>
<text text-anchor="start" x="5.5" y="-32.4" font-family="Times New Roman,serif" font-size="14.00">+ setOrderId(orderId: long)</text>
<text text-anchor="start" x="5.5" y="-8.4" font-family="Times New Roman,serif" font-size="14.00">+ setPhoneNumber(phoneNumber: String)</text>
<polygon fill="black" stroke="black" points="0.5,-529 0.5,-529 701.5,-529 701.5,-529 0.5,-529"/>
<polygon fill="black" stroke="black" points="0.5,-361 0.5,-361 701.5,-361 701.5,-361 0.5,-361"/>
<polygon fill="none" stroke="black" points="0,0 0,-554 701,-554 701,0 0,0"/>
</g>
<!-- TicketList1917344214&#45;&gt;Ticket1917344214 -->
<g id="edge16" class="edge">
<title>TicketList1917344214&#45;&gt;Ticket1917344214</title>
<path fill="none" stroke="black" d="M350.5,-606.61C350.5,-592.9 350.5,-578.83 350.5,-564.59"/>
<polygon fill="black" stroke="black" points="354,-564.2 350.5,-554.2 347,-564.2 354,-564.2"/>
<text text-anchor="middle" x="415.83" y="-576.2" font-family="Times New Roman,serif" font-size="14.00">вимагає</text>
</g>
<!-- TypeItem1917344214&#45;&gt;Type1917344214 -->
<g id="edge17" class="edge">
<title>TypeItem1917344214&#45;&gt;Type1917344214</title>
<path fill="none" stroke="black" d="M1175.81,-678.72C1216.28,-615.3 1270.51,-530.31 1318.61,-454.92"/>
<polygon fill="black" stroke="black" points="1321.72,-456.56 1324.15,-446.24 1315.82,-452.79 1321.72,-456.56"/>
<text text-anchor="middle" x="1276.33" y="-576.2" font-family="Times New Roman,serif" font-size="14.00">містить</text>
</g>
</g>
</svg>
